<svg xmlns="http://www.w3.org/2000/svg" viewBox="0 0 180 180" fill="none">
  <defs>
    <linearGradient id="bgGrad2" x1="0%" y1="0%" x2="100%" y2="100%">
      <stop offset="0%" style="stop-color:#4F46E5;stop-opacity:1" />
      <stop offset="100%" style="stop-color:#7C3AED;stop-opacity:1" />
    </linearGradient>
    <linearGradient id="iconGrad2" x1="0%" y1="0%" x2="100%" y2="100%">
      <stop offset="0%" style="stop-color:#FFFFFF;stop-opacity:1" />
      <stop offset="100%" style="stop-color:#E0E7FF;stop-opacity:1" />
    </linearGradient>
  </defs>
  
  <!-- Фон -->
  <rect width="180" height="180" rx="40" fill="url(#bgGrad2)"/>
  
  <!-- Иконка человека с документом (увеличенная) -->
  <!-- Голова -->
  <circle cx="67" cy="56" r="18" fill="url(#iconGrad2)"/>
  
  <!-- Тело -->
  <path d="M 45 80 Q 45 73 52 73 L 82 73 Q 89 73 89 80 L 89 110 Q 89 117 82 117 L 52 117 Q 45 117 45 110 Z" fill="url(#iconGrad2)"/>
  
  <!-- Документ -->
  <rect x="95" y="45" width="50" height="70" rx="6" fill="url(#iconGrad2)" opacity="0.95"/>
  
  <!-- Линии на документе -->
  <line x1="105" y1="62" x2="135" y2="62" stroke="#4F46E5" stroke-width="4" stroke-linecap="round"/>
  <line x1="105" y1="74" x2="135" y2="74" stroke="#4F46E5" stroke-width="4" stroke-linecap="round"/>
  <line x1="105" y1="86" x2="125" y2="86" stroke="#4F46E5" stroke-width="4" stroke-linecap="round"/>
  
  <!-- Галочка -->
  <path d="M 105 98 L 112 105 L 125 92" stroke="#10B981" stroke-width="5" stroke-linecap="round" stroke-linejoin="round" fill="none"/>
</svg>
